<svg width="82" height="44" viewBox="0 0 82 44" fill="none" xmlns="http://www.w3.org/2000/svg">
<path d="M1.00763 1.00763H9.40459C9.40459 3.23465 8.51991 5.37044 6.94518 6.94518C5.37044 8.51991 3.23465 9.40459 1.00763 9.40459V1.00763ZM80.7787 1.00763H72.3818C72.3818 3.23465 73.2664 5.37044 74.8412 6.94518C76.4159 8.51991 78.5517 9.40459 80.7787 9.40459V1.00763ZM1.00763 42.9924H9.41299C9.41409 41.8883 9.19743 40.7948 8.77542 39.7745C8.3534 38.7542 7.73431 37.8272 6.95358 37.0465C6.17285 36.2657 5.24581 35.6466 4.22553 35.2246C3.20525 34.8026 2.11175 34.5859 1.00763 34.5871V42.9924ZM80.7787 42.9924H72.3818C72.3818 40.7654 73.2664 38.6296 74.8412 37.0549C76.4159 35.4801 78.5517 34.5955 80.7787 34.5955V42.9924Z" stroke="black" stroke-width="2" stroke-linecap="square"/>
</svg>
